PathFileType	4	(X/Y/Z)	./resultDataOpenSim/trcMotMarkerGrf/sub06/qtm-02-04.trc
DataRate	CameraRate	NumFrames	NumMarkers	Units	OrigDataRate	OrigDataStartFrame	OrigNumFrames
250.000000	250.000000	6	24	m	250.000000	247	492
Frame#	Time	L.Toe.Tip			R.Toe.Tip			L.Ankle.Lat			R.Ankle.Lat			L.Ankle.Med			R.Ankle.Med			L.Heel			R.Heel			L.Knee.Lat			R.Knee.Lat			L.Knee.Med			R.Knee.Med			L.Thigh.Upper			R.Thigh.Upper			L.ASIS			R.ASIS			V.Sacral			L.Acromium			R.Acromium			C7			L.Elbow			R.Elbow			L.Wrist.Lat			R.Wrist.Lat
		X1	Y1	Z1	X2	Y2	Z2	X3	Y3	Z3	X4	Y4	Z4	X5	Y5	Z5	X6	Y6	Z6	X7	Y7	Z7	X8	Y8	Z8	X9	Y9	Z9	X10	Y10	Z10	X11	Y11	Z11	X12	Y12	Z12	X13	Y13	Z13	X14	Y14	Z14	X15	Y15	Z15	X16	Y16	Z16	X17	Y17	Z17	X18	Y18	Z18	X19	Y19	Z19	X20	Y20	Z20	X21	Y21	Z21	X22	Y22	Z22	X23	Y23	Z23	X24	Y24	Z24

247	0.984	0.080750825	0.0093742236	-0.022035143	0.62578691	0.10780531	0.16981724	-0.037250023	0.062762921	-0.039380951	0.48905381	0.09335641	0.17727934	-0.029766716	0.077319027	0.046801115	0.51209847	0.12394359	0.093585344	-0.1116425	0.047511444	0.010678865	0.45348497	0.057671222	0.10927635	0.096046518	0.4097916	-0.06122674	0.42558064	0.48345055	0.18869335	0.081179871	0.41457659	0.058953383	0.41293502	0.46174251	0.063853269	0.18895205	0.7854441	-0.13158983	0.21095326	0.78958259	0.21815996	0.27292827	0.82750493	-0.09136334	0.29237441	0.84011961	0.15349828	0.096772605	0.91243954	0.047895452	0.2516977	1.3230516	-0.13678826	0.22718033	1.3003539	0.22327681	0.16508408	1.3503159	0.037981908	0.26402404	1.0004516	-0.22038712	0.074821787	1.0234742	0.26857534	0.5020657	0.91454957	-0.18088273	0.13461304	0.79733733	0.3292318
248	0.988	0.080718431	0.0093152128	-0.022143483	0.6434101	0.11041105	0.16876578	-0.036695855	0.063438299	-0.039743043	0.50692376	0.093261418	0.17733531	-0.029143171	0.078042608	0.046320076	0.52878257	0.12469685	0.093832104	-0.11119875	0.048734009	0.010244801	0.47151237	0.057291636	0.10953674	0.098742313	0.40960938	-0.061523907	0.43245302	0.48110639	0.18824	0.08422136	0.41427014	0.058836726	0.41991374	0.45896686	0.063108869	0.19415423	0.78441237	-0.13128212	0.21870357	0.78788673	0.21833638	0.27888283	0.82633634	-0.091726456	0.29982106	0.83874958	0.15333871	0.10366426	0.91078224	0.048990898	0.2582185	1.3216999	-0.13655426	0.2334666	1.2989487	0.22360315	0.1717498	1.3490209	0.037941568	0.27303347	0.99940458	-0.22053615	0.080899732	1.0223445	0.26819918	0.51189199	0.91629219	-0.1794691	0.1388053	0.79611625	0.32990481
249	0.992	0.080662506	0.0092393669	-0.02226977	0.66043132	0.11298206	0.16786819	-0.036061944	0.064093567	-0.040181365	0.52416175	0.093389958	0.17741693	-0.028500923	0.078764121	0.045854536	0.54487473	0.12562089	0.094083139	-0.11076871	0.050019146	0.0097195956	0.48890929	0.057228874	0.10977634	0.10163094	0.40935558	-0.06182392	0.4393346	0.47871003	0.18773596	0.087546205	0.41386431	0.058642854	0.42690669	0.45612198	0.062256226	0.19937322	0.78332264	-0.13095124	0.22645825	0.78610881	0.21847298	0.28479286	0.82506482	-0.092148823	0.30730692	0.83737724	0.15314784	0.1104047	0.90915792	0.049871174	0.26473133	1.3203022	-0.13630626	0.23974649	1.2975118	0.22394391	0.17822851	1.3477182	0.038125558	0.28242	0.99832369	-0.22043598	0.086985311	1.0211296	0.26780662	0.52163541	0.91794014	-0.17804263	0.1431767	0.79487838	0.33060641
250	0.996	0.080579661	0.0091476116	-0.022415365	0.67677167	0.11553488	0.16712668	-0.035396216	0.064765718	-0.040668203	0.54061982	0.093808404	0.17756525	-0.027847796	0.0795016	0.045413784	0.56032506	0.12666879	0.094344691	-0.11035837	0.051391874	0.0091071029	0.5056229	0.057386168	0.11004777	0.10477168	0.40903045	-0.062130105	0.44623869	0.47629458	0.18720608	0.091091583	0.41334566	0.058440177	0.43395445	0.45326182	0.061327207	0.20461421	0.7822038	-0.13058843	0.2342281	0.78427645	0.21857217	0.2907286	0.82375506	-0.09250849	0.31481695	0.83599872	0.15292047	0.11695836	0.90765416	0.050823603	0.27123387	1.3188663	-0.13604525	0.24603651	1.2960449	0.2243009	0.184546	1.3464213	0.038505423	0.29210981	0.99719567	-0.22007538	0.093067539	1.019861	0.26753004	0.53129962	0.91949335	-0.17662101	0.14757624	0.79361199	0.33130587
251	1	0.080493477	0.0090532495	-0.022560403	0.69238036	0.1180502	0.16652669	-0.034756473	0.065477244	-0.041156121	0.55632864	0.094392305	0.17772506	-0.027190371	0.080248792	0.044988631	0.5750801	0.12777744	0.094592458	-0.10994694	0.052833596	0.0084505961	0.52160005	0.057655778	0.11036306	0.10816982	0.40862916	-0.062430617	0.45318635	0.47390069	0.1866879	0.094818704	0.41271622	0.058264659	0.44107604	0.45044019	0.060349539	0.20987425	0.78107204	-0.13017504	0.24203087	0.7824159	0.21864388	0.296722	0.82242377	-0.092760982	0.32233788	0.8346138	0.15266078	0.12333597	0.90629891	0.051974991	0.27772547	1.3174	-0.13576866	0.25236354	1.294551	0.22467602	0.19083448	1.3451065	0.038938603	0.30188196	0.99602959	-0.2195839	0.099164633	1.018577	0.26741156	0.5408941	0.92095453	-0.17522031	0.15185785	0.79229941	0.33196833
252	1.004	0.08044038	0.0089777622	-0.022680814	0.70721549	0.12049978	0.16602803	-0.034142285	0.066221383	-0.041617562	0.57136204	0.094964597	0.17781055	-0.026534917	0.080992912	0.044572391	0.58909557	0.12886592	0.094760979	-0.10951487	0.054326785	0.007793617	0.53679238	0.057932564	0.11069861	0.1117895	0.40815962	-0.062707504	0.460218	0.47159235	0.1862027	0.09873573	0.41199523	0.058112193	0.44825884	0.44769806	0.059337887	0.21515614	0.77993012	-0.12970446	0.24987735	0.78054044	0.21869712	0.30275766	0.82102575	-0.092948298	0.32987587	0.83322668	0.15239035	0.12957514	0.90507924	0.053320997	0.28420866	1.315908	-0.13547465	0.25873918	1.2930335	0.22507099	0.19718994	1.3437547	0.039331705	0.31146007	0.99484737	-0.21914949	0.10529207	1.0172983	0.26739879	0.55042321	0.92232715	-0.17383473	0.15608242	0.79093893	0.3325933
